<svg xmlns="http://www.w3.org/2000/svg" viewBox="0 -14 128.27 214.118" font-family="Oxanium, sans-serif" class="uppercase"><defs><linearGradient id="v2-text-rare" x1="100%" y1="34%" x2="0%" y2="66%"><stop stop-color="#97e5ff" offset="0"></stop><stop stop-color="#1f8eff" offset="0.51"></stop><stop stop-color="#3992ff" offset="1"></stop></linearGradient><linearGradient id="v2-b"><stop offset="0.22" stop-color="#000"></stop><stop offset="1" stop-color="#FFF"></stop></linearGradient><linearGradient id="v2-glass-line" x1="45" x2="71" y1="94" y2="94" gradientUnits="userSpaceOnUse"><stop offset="0.08" stop-color="#FFF" stop-opacity="0"></stop><stop offset="0.5" stop-color="#FFF"></stop><stop offset="0.92" stop-color="#FFF" stop-opacity="0"></stop></linearGradient><linearGradient href="#v2-b" id="v2-a" x1="106" x2="106" y1="151" y2="116" gradientUnits="userSpaceOnUse"></linearGradient><mask id="v2-flag-clip" clipPathUnits="userSpaceOnUse"><g transform="translate(41.916 35.258)"><path fill="#FFF" d="M9 82.227h13.547V88.5c0 2.534-2.547 2.556-2.547 2.556H9Z"></path></g></mask><clipPath id="v2-c" clipPathUnits="userSpaceOnUse"><rect width="121.401" height="210.351" x="3.457" y="-70.558" ry="0" fill="#000" stroke="none"></rect></clipPath><clipPath id="v2-f" clipPathUnits="userSpaceOnUse" transform="translate(0 -20)"><path d="M77.517 43.88h57.075l4.214 12.707s.577 2.31 3.385 2.31h24.583v123.53H45.31V58.932h24.805s2.406.01 3.087-2.079c.68-2.088 4.315-12.972 4.315-12.972z" fill="#000" stroke="none"></path></clipPath><filter id="v2-e" width="1.048" height="1.048" x="-.024" y="-.024"><feGaussianBlur result="fbSourceGraphic" stdDeviation="1.582"></feGaussianBlur><feColorMatrix in="fbSourceGraphic" result="fbSourceGraphicAlpha" values="0 0 0 -1 0 0 0 0 -1 0 0 0 0 -1 0 0 0 0 1 0"></feColorMatrix><feColorMatrix in="fbSourceGraphic" result="fbSourceGraphic" values="-10 -10 -10 -10 0 -10 -10 -10 -10 0 -10 -10 -10 -10 0 0 0 0 1 0"></feColorMatrix><feColorMatrix in="fbSourceGraphic" result="fbSourceGraphicAlpha" values="0 0 0 -1 0 0 0 0 -1 0 0 0 0 -1 0 0 0 0 1 0"></feColorMatrix><feColorMatrix in="fbSourceGraphic" values="-10 -10 -10 -10 0 -10 -10 -10 -10 0 -10 -10 -10 -10 0 0 0 0 1 0"></feColorMatrix></filter><mask id="v2-d"><rect width="121.401" height="169" x="45.304" y="-14" fill="url(#v2-a)" stroke="none"></rect></mask><clipPath id="v2-glass-mask" clipPathUnits="userSpaceOnUse"><path d="M45.256 60.348h24.66s.734-.018 1.466-.286c.522-.191-.021 75.477-.021 75.477H45.256Z"></path></clipPath><linearGradient id="v2-glass-bg" x1="57.988" x2="57.988" y1="109.507" y2="84.028" gradientUnits="userSpaceOnUse"><stop offset="0" stop-color="#8f8f8f" stop-opacity=".65"></stop><stop offset=".6" stop-color="#888" stop-opacity=".4"></stop><stop offset="1" stop-color="#fff" stop-opacity=".09"></stop></linearGradient><linearGradient id="v2-glass-border" x1="57.988426" y1="109.63931" x2="57.988426" y2="83.896194" gradientUnits="userSpaceOnUse"><stop stop-color="#FFF" stop-opacity="0.6" offset="0"></stop><stop stop-color="#FFF" stop-opacity="0.16" offset="1"></stop></linearGradient><linearGradient id="v2-photo-mask-gradient" gradientUnits="userSpaceOnUse" gradientTransform="matrix(1,0,0,1.25,0,-32.9)" x1="64.1" y1="173.75" x2="64.1" y2="50.85"><stop stop-color="#FFF" offset="0.45"></stop><stop stop-color="#FFF" stop-opacity="0" offset="0.62"></stop></linearGradient><mask maskUnits="userSpaceOnUse" id="v2-photo-mask"><g transform="translate(41.915516,35.258179)"><path fill="#FFF" d="m 45.249161,59.87824 h 25.478533 v 63.87393 c -0.0057,5.36472 -4.453311,9.89206 -9.6102,9.87001 -4.898883,0.0789 -15.867979,0 -15.867979,0 0.005,-24.58297 -3.44e-4,-49.160854 -3.44e-4,-73.74394 z" transform="translate(-41.915517,-55.258179)"></path><rect fill="url(#v2-photo-mask-gradient)" width="123" height="53.018681" x="2.6" y="80.6"></rect></g></mask><filter id="v2-photo-blur" x="-0.015578374" y="-0.015578374" width="1.0311567" height="1.0311567"><feGaussianBlur stdDeviation="1.0301174"></feGaussianBlur></filter></defs><g transform="translate(-41.916 -35.258)"><image href="https://d13e14gtps4iwl.cloudfront.net/players/v2/_elements/rare-bg.webp" width="128.27" height="194.818" x="41.916" y="40.558" preserveAspectRatio="none" class="v2-bg"></image><g transform="translate(0 20)" class="v2-photo"><g clip-path="url(#v2-c)" transform="translate(41.916 56.558)"><g mask="url(#v2-d)" transform="translate(-41.916 -56.558)"><image href="https://d13e14gtps4iwl.cloudfront.net/players/v2/2815/photo.webp" height="160" width="160" x="32.766" y="0" clip-path="url(#v2-f)" preserveAspectRatio="none" opacity="0.42" filter="url(#v2-e)"></image><image href="https://d13e14gtps4iwl.cloudfront.net/players/v2/2815/photo.webp" height="160" width="160" x="26.066" y="2.6" preserveAspectRatio="none" filter="brightness(1.1)"></image><image href="https://d13e14gtps4iwl.cloudfront.net/players/v2/2815/photo.webp" height="160" width="160" x="26.066" y="2.6" preserveAspectRatio="none" mask="url(#v2-photo-mask)" filter="url(#v2-photo-blur)" class="v2-photo-blur"></image></g></g></g><g clip-path="url(#v2-glass-mask)"><g class="v2-glass"><path d="M45.25 59.878h25.478v63.874c-.006 5.365-4.454 9.892-9.61 9.87-4.9.08-15.868 0-15.868 0 .005-24.583 0-49.16 0-73.744z" fill="url(#v2-glass-bg)" stroke="url(#v2-glass-border)" stroke-width="0.26"></path><path d="M45.27 94h25.3" stroke="url(#v2-glass-line)" stroke-opacity="0.5" stroke-width="0.26"></path><text><tspan x="57.94" y="74" font-size="17.1" font-weight="600" fill="url(#v2-text-rare)" dominant-baseline="middle" text-anchor="middle" class="v2-ovr">76</tspan></text><text><tspan x="57.94" y="87" font-size="8.3" font-weight="600" fill="#FFF" dominant-baseline="middle" text-anchor="middle" class="v2-position">RB</tspan></text><g class="v2-age-group"><text><tspan x="57.94" y="102" font-size="4.4" font-weight="500" fill="#FFF" dominant-baseline="middle" text-anchor="middle">age</tspan></text><text><tspan x="57.94" y="109.5" font-size="9" font-weight="500" fill="#FFF" dominant-baseline="middle" text-anchor="middle">25</tspan></text></g><image href="/img/flags/ENGLAND.svg" width="13.3" height="8.8" preserveAspectRatio="none" y="117.7" x="51.2" class="v2-nationality" mask="url(#v2-flag-clip)"></image></g></g></g><g transform="translate(0, 122)"><g class="v2-names"><text class="v2-fn"><tspan x="64.2" y="0" dominant-baseline="middle" text-anchor="middle" fill="#FFF" font-weight="400" font-size="12.3">Gregory</tspan></text><text class="v2-ln"><tspan x="64.2" y="12.5" dominant-baseline="middle" text-anchor="middle" fill="url(#v2-text-rare)" style="font-weight: 600; font-size: 14.2px;">Midgley</tspan></text></g></g><g fill="#FFF" class="v2-stats"><path d="M64.2 146.8v28.5" stroke="#175BD6" stroke-width="0.35"></path><text class="v2-pace" font-size="8.7" dominant-baseline="middle"><tspan x="31.999999999999996" y="150.2" font-weight="600" text-anchor="end">79</tspan><tspan x="34.8" y="150.2" font-weight="300">pac</tspan></text><text class="v2-shooting" font-size="8.7" dominant-baseline="middle"><tspan x="31.999999999999996" y="161.5" font-weight="600" text-anchor="end">41</tspan><tspan x="34.8" y="161.5" font-weight="300">sho</tspan></text><text class="v2-passing" font-size="8.7" dominant-baseline="middle"><tspan x="31.999999999999996" y="172.79999999999998" font-weight="600" text-anchor="end">61</tspan><tspan x="34.8" y="172.79999999999998" font-weight="300">pas</tspan></text><text class="v2-dribbling" font-size="8.7" dominant-baseline="middle"><tspan x="86.5" y="150.2" font-weight="600" text-anchor="end">78</tspan><tspan x="89.3" y="150.2" font-weight="300">dri</tspan></text><text class="v2-defense" font-size="8.7" dominant-baseline="middle"><tspan x="86.5" y="161.5" font-weight="600" text-anchor="end">81</tspan><tspan x="89.3" y="161.5" font-weight="300">def</tspan></text><text class="v2-physical" font-size="8.7" dominant-baseline="middle"><tspan x="86.5" y="172.79999999999998" font-weight="600" text-anchor="end">75</tspan><tspan x="89.3" y="172.79999999999998" font-weight="300">phy</tspan></text></g></svg>